<?xml version="1.0" encoding="UTF-8"?>
<svg version="1.1" xmlns="http://www.w3.org/2000/svg" width="128" height="128">
<path d="M0 0 C42.24 0 84.48 0 128 0 C128 42.24 128 84.48 128 128 C85.76 128 43.52 128 0 128 C0 85.76 0 43.52 0 0 Z " fill="#FDFDFD" transform="translate(0,0)"/>
<path d="M0 0 C7.35365995 4.98578145 13.09663179 10.75473911 15.953125 19.32421875 C16.58300294 28.99955701 16.75581183 37.59790831 11.953125 46.32421875 C18.01846388 52.51591885 24.14246829 58.60190453 31.0078125 63.9140625 C35.86535152 67.74742161 35.86535152 67.74742161 36.390625 71.19921875 C36.24625 71.90046875 36.101875 72.60171875 35.953125 73.32421875 C34.234375 74.05859375 34.234375 74.05859375 31.953125 74.32421875 C29.796875 72.83984375 29.796875 72.83984375 27.453125 70.57421875 C26.58429688 69.75308594 25.71546875 68.93195313 24.8203125 68.0859375 C23.87414062 67.17457031 22.92796875 66.26320313 21.953125 65.32421875 C19.83903937 63.33313686 17.70957883 61.3591677 15.578125 59.38671875 C15.07861328 58.91459961 14.57910156 58.44248047 14.06445312 57.95605469 C10.43494833 54.41210114 10.43494833 54.41210114 5.953125 52.32421875 C3.41295593 53.36659089 3.41295593 53.36659089 0.953125 55.13671875 C-6.60987222 60.17487391 -14.15441968 60.12109866 -23.046875 59.32421875 C-26.80185017 58.17493875 -29.82152896 56.54494881 -33.046875 54.32421875 C-33.70300781 53.87820312 -34.35914063 53.4321875 -35.03515625 52.97265625 C-40.66469089 48.65708152 -44.76512511 42.35480723 -46.046875 35.32421875 C-47.02250949 25.04918213 -46.15098259 16.96628152 -40.046875 8.32421875 C-37.62430602 5.5207427 -35.12689021 3.37565745 -32.046875 1.32421875 C-31.08201172 0.67646484 -31.08201172 0.67646484 -30.09765625 0.015625 C-21.619499 -4.65139871 -8.491051 -4.6182243 0 0 Z " fill="#FBFBFB" transform="translate(69.046875,25.67578125)"/>
<path d="M0 0 C7.35365995 4.98578145 13.09663179 10.75473911 15.953125 19.32421875 C16.58300294 28.99955701 16.75581183 37.59790831 11.953125 46.32421875 C18.01846388 52.51591885 24.14246829 58.60190453 31.0078125 63.9140625 C35.86535152 67.74742161 35.86535152 67.74742161 36.390625 71.19921875 C36.24625 71.90046875 36.101875 72.60171875 35.953125 73.32421875 C34.234375 74.05859375 34.234375 74.05859375 31.953125 74.32421875 C29.796875 72.83984375 29.796875 72.83984375 27.453125 70.57421875 C26.58429688 69.75308594 25.71546875 68.93195313 24.8203125 68.0859375 C23.87414062 67.17457031 22.92796875 66.26320313 21.953125 65.32421875 C19.83903937 63.33313686 17.70957883 61.3591677 15.578125 59.38671875 C15.07861328 58.91459961 14.57910156 58.44248047 14.06445312 57.95605469 C10.43494833 54.41210114 10.43494833 54.41210114 5.953125 52.32421875 C3.41295593 53.36659089 3.41295593 53.36659089 0.953125 55.13671875 C-6.60987222 60.17487391 -14.15441968 60.12109866 -23.046875 59.32421875 C-26.80185017 58.17493875 -29.82152896 56.54494881 -33.046875 54.32421875 C-33.70300781 53.87820312 -34.35914063 53.4321875 -35.03515625 52.97265625 C-40.66469089 48.65708152 -44.76512511 42.35480723 -46.046875 35.32421875 C-47.02250949 25.04918213 -46.15098259 16.96628152 -40.046875 8.32421875 C-37.62430602 5.5207427 -35.12689021 3.37565745 -32.046875 1.32421875 C-31.08201172 0.67646484 -31.08201172 0.67646484 -30.09765625 0.015625 C-21.619499 -4.65139871 -8.491051 -4.6182243 0 0 Z M-35.046875 12.32421875 C-39.60481881 18.79314183 -42.05988983 24.20622319 -41.046875 32.32421875 C-38.21667849 41.95861828 -34.06624868 47.01397944 -25.484375 52.08984375 C-19.81850772 54.95909705 -14.17134196 55.21218147 -8.10546875 53.48828125 C-0.15840313 50.52429432 4.9347557 46.81808518 9.0390625 39.34765625 C12.17824337 32.11890029 11.73414199 24.74094112 8.98046875 17.45703125 C5.90957803 11.081722 1.2714502 7.12861333 -5.1328125 4.20703125 C-16.70300338 0.70185278 -27.29593921 3.1068897 -35.046875 12.32421875 Z " fill="#14181E" transform="translate(69.046875,25.67578125)"/>
<path d="M0 0 C0.33 0 0.66 0 1 0 C1.44682233 9.30879863 1.44371561 16.56884314 -3 25 C3.06533888 31.1917001 9.18934329 37.27768578 16.0546875 42.58984375 C20.91222652 46.42320286 20.91222652 46.42320286 21.4375 49.875 C21.293125 50.57625 21.14875 51.2775 21 52 C19.28125 52.734375 19.28125 52.734375 17 53 C14.84375 51.515625 14.84375 51.515625 12.5 49.25 C11.63117188 48.42886719 10.76234375 47.60773438 9.8671875 46.76171875 C8.92101562 45.85035156 7.97484375 44.93898437 7 44 C4.88591437 42.00891811 2.75645383 40.03494895 0.625 38.0625 C0.12548828 37.59038086 -0.37402344 37.11826172 -0.88867188 36.63183594 C-4.51817667 33.08788239 -4.51817667 33.08788239 -9 31 C-11.54016907 32.04237214 -11.54016907 32.04237214 -14 33.8125 C-19.40574728 37.41358469 -22.76008848 38.13304252 -29.25 38.0625 C-30.32765625 38.05347656 -31.4053125 38.04445312 -32.515625 38.03515625 C-33.33546875 38.02355469 -34.1553125 38.01195312 -35 38 C-35 37.67 -35 37.34 -35 37 C-33.02 37 -31.04 37 -29 37 C-29 36.34 -29 35.68 -29 35 C-30.65 34.67 -32.3 34.34 -34 34 C-34 33.67 -34 33.34 -34 33 C-33.32195313 32.91363281 -32.64390625 32.82726562 -31.9453125 32.73828125 C-23.17718478 31.41456114 -15.19158445 29.27000282 -9.5 22.0625 C-5.0823974 15.36765437 -4.53051034 8.84596872 -4 1 C-3.67 1 -3.34 1 -3 1 C-3 2.65 -3 4.3 -3 6 C-2.34 6 -1.68 6 -1 6 C-1.020625 5.195625 -1.04125 4.39125 -1.0625 3.5625 C-1 1 -1 1 0 0 Z " fill="#0E1318" transform="translate(84,47)"/>
<path d="M0 0 C3.006818 1.33999498 4.99762609 2.79845291 7.25 5.1875 C9.74868926 7.76093638 12.29635151 10.20466701 15 12.5625 C15.66 13.13871094 16.32 13.71492188 17 14.30859375 C18.33037653 15.43369734 19.68507312 16.53067217 21.0625 17.59765625 C25.9117984 21.42038946 25.9117984 21.42038946 26.4375 24.875 C26.293125 25.57625 26.14875 26.2775 26 27 C24.28125 27.734375 24.28125 27.734375 22 28 C19.84375 26.515625 19.84375 26.515625 17.5 24.25 C16.63246094 23.42628906 15.76492187 22.60257813 14.87109375 21.75390625 C13.92363281 20.84511719 12.97617188 19.93632813 12 19 C10.93194969 18.02602495 9.86024787 17.05604087 8.78515625 16.08984375 C8.24890625 15.60676758 7.71265625 15.12369141 7.16015625 14.62597656 C6.11555043 13.68544821 5.07001505 12.74595099 4.0234375 11.80761719 C1.36179047 9.38323494 -0.95801126 6.96953616 -3 4 C-2.01 2.68 -1.02 1.36 0 0 Z " fill="#179F3A" transform="translate(79,72)"/>
<path d="M0 0 C2 3 2 3 2.9375 4.83203125 C6.24687329 11.00060573 10.72561242 14.05154795 17 17 C19.19270123 17.66037819 19.19270123 17.66037819 21 18 C21 18.66 21 19.32 21 20 C22.98 20 24.96 20 27 20 C26.67 20.99 26.34 21.98 26 23 C18.07592846 24.66149887 13.78285763 23.27275407 7 19 C5.9171875 18.39865234 5.9171875 18.39865234 4.8125 17.78515625 C2.60366504 16.32002177 1.36408905 15.28672533 0 13 C-0.57174145 8.6044098 -0.41172555 4.40480986 0 0 Z " fill="#15191E" transform="translate(29,61)"/>
<path d="M0 0 C1.765625 1.79296875 1.765625 1.79296875 3.25 4.1875 C3.75015625 4.96480469 4.2503125 5.74210937 4.765625 6.54296875 C6.76500904 10.52275534 7.28274293 13.00097498 6.0625 17.3125 C5.711875 18.199375 5.36125 19.08625 5 20 C4.34 20 3.68 20 3 20 C2.5875 19.01 2.175 18.02 1.75 17 C-1.86156966 8.55734314 -1.86156966 8.55734314 -7 1 C-4.41611978 -0.29194011 -2.86418027 -0.36019237 0 0 Z " fill="#0F1319" transform="translate(78,33)"/>
<path d="M0 0 C3.46854318 2.68023791 4.21574261 5.79352852 5 10 C4.125 13.4375 4.125 13.4375 3 16 C2.34 16 1.68 16 1 16 C-0.06652192 13.69631264 -1.06421005 11.35981813 -2 9 C-1.67 8.34 -1.34 7.68 -1 7 C-0.01 7 0.98 7 2 7 C1.34 4.69 0.68 2.38 0 0 Z " fill="#202328" transform="translate(80,37)"/>
<path d="M0 0 C3.3 0 6.6 0 10 0 C10 1.32 10 2.64 10 4 C6.04 4.66 2.08 5.32 -2 6 C0 4 0 4 2.5625 3.5 C3.366875 3.335 4.17125 3.17 5 3 C5.33 2.34 5.66 1.68 6 1 C4.02 1 2.04 1 0 1 C0 0.67 0 0.34 0 0 Z " fill="#080B12" transform="translate(49,23)"/>
<path d="M0 0 C2.875 -0.1875 2.875 -0.1875 6 0 C6.66 0.99 7.32 1.98 8 3 C6.35 3 4.7 3 3 3 C3 3.99 3 4.98 3 6 C2.01 5.67 1.02 5.34 0 5 C0 3.33333333 0 1.66666667 0 0 Z " fill="#1EA43F" transform="translate(86,82)"/>
<path d="M0 0 C0.99 0.33 1.98 0.66 3 1 C0.19195732 3.96404505 -2.18315774 6.44499019 -6 8 C-2.25 2.25 -2.25 2.25 0 0 Z " fill="#1E2229" transform="translate(33,30)"/>
<path d="M0 0 C2.475 0.495 2.475 0.495 5 1 C4.67 2.98 4.34 4.96 4 7 C3.34 7 2.68 7 2 7 C0 4 0 4 0 0 Z " fill="#161B21" transform="translate(79,46)"/>
<path d="M0 0 C1.94268841 2.91403262 3.46395304 5.85808576 5 9 C3.35 9.33 1.7 9.66 0 10 C0 6.7 0 3.4 0 0 Z " fill="#22252B" transform="translate(29,61)"/>
<path d="M0 0 C0.33 0.66 0.66 1.32 1 2 C2.32 1.67 3.64 1.34 5 1 C5 2.32 5 3.64 5 5 C4.01 5.33 3.02 5.66 2 6 C1.34 5.67 0.68 5.34 0 5 C0 3.35 0 1.7 0 0 Z " fill="#171C23" transform="translate(66,76)"/>
</svg>
